<svg height="22" viewBox="0 0 18 22" width="16" xmlns="http://www.w3.org/2000/svg" aria-label="location" class="" name="location"><path d="M8 .35c4.224 0 7.65 3.545 7.65 7.893 0 2.335-1.224 5.198-3.27 8.366a44.67 44.67 0 0 1-3.42 4.6c-.51.588-1.41.588-1.92 0a44.67 44.67 0 0 1-3.42-4.6C1.573 13.441.35 10.578.35 8.243.35 3.895 3.776.35 8 .35zm1.089 18.642a43.386 43.386 0 0 0 2.2-3.088c1.92-2.973 3.061-5.645 3.061-7.66 0-3.64-2.854-6.594-6.35-6.594-3.496 0-6.35 2.953-6.35 6.593 0 2.016 1.142 4.688 3.062 7.661A43.386 43.386 0 0 0 8 20.332c.25-.288.629-.749 1.089-1.34zM8 10.037c.938 0 1.712-.8 1.712-1.794C9.712 7.25 8.938 6.45 8 6.45s-1.712.8-1.712 1.794.774 1.794 1.712 1.794zm0 1.3c-1.666 0-3.012-1.392-3.012-3.094C4.988 6.542 6.334 5.15 8 5.15s3.012 1.393 3.012 3.094c0 1.702-1.346 3.094-3.012 3.094z" fill="#000000" fill-rule="nonzero"></path></svg>