<svg height="15" viewBox="0 0 15 15" width="15" xmlns="http://www.w3.org/2000/svg" aria-label="search" class="_964ee_2R_VR" name="search"><path d="M6.222 0C2.8 0 0 2.794 0 6.216s2.8 6.222 6.222 6.222a6.174 6.174 0 0 0 3.538-1.121l3.364 3.357a1.091 1.091 0 0 0 1.555 0 1.095 1.095 0 0 0 0-1.549l-3.363-3.364a6.164 6.164 0 0 0 1.12-3.545C12.437 2.794 9.638 0 6.223 0zm0 2.19a4.007 4.007 0 0 1 4.018 4.026 4.007 4.007 0 0 1-4.018 4.025 4.008 4.008 0 0 1-4.025-4.025A4.008 4.008 0 0 1 6.222 2.19z" fill="#000000" fill-rule="nonzero"></path></svg>