<svg height="14" viewBox="0 0 14 14" width="14" xmlns="http://www.w3.org/2000/svg" aria-label="sell-outline" class="" name="sell-outline"><path d="M13.14.006H7.284c-.462 0-.547.202-.988.664L.531 6.427a1.807 1.807 0 0 0 0 2.56l4.484 4.477a1.814 1.814 0 0 0 2.563 0l5.766-5.757c.371-.371.633-.555.633-1.017V.842a.837.837 0 0 0-.837-.836zM6.937 12.825a.907.907 0 0 1-1.282 0L1.171 8.346a.904.904 0 0 1 0-1.28l.648-.646 5.752 5.771-.634.634zm6.203-6.553c0 .231-.211.57-.437.795l-4.485 4.478L2.46 5.78l4.478-4.47c.206-.206.533-.468.764-.468h5.02c.232 0 .419.187.419.417v5.013zM8.54 2.91a1.807 1.807 0 0 0 0 2.559 1.814 1.814 0 0 0 2.562 0 1.807 1.807 0 0 0 0-2.56 1.814 1.814 0 0 0-2.562 0zm1.922 1.919a.904.904 0 1 1 0-1.28.904.904 0 0 1 0 1.28z" fill="#000" fill-rule="nonzero"></path></svg>